<svg width="512" height="608" viewBox="0 0 512 608" fill="none" xmlns="http://www.w3.org/2000/svg">
<circle cx="256" cy="352" r="248.5" stroke="#3366FF" stroke-width="15"/>
<path d="M108 474C167.5 451 136 382 254 385C372 388 395 488 395 488" stroke="#3366FF" stroke-width="15"/>
<circle cx="137" cy="265" r="12" fill="#3366FF"/>
<circle cx="365" cy="253" r="12" fill="#3366FF"/>
<line x1="243.5" y1="104" x2="243.5" stroke="#3366FF" stroke-width="15"/>
<path d="M236.442 108.182C217.525 65.3399 204.231 49.6527 161 82.2056" stroke="#3366FF" stroke-width="15"/>
<path d="M251.435 105.548C275.483 65.3689 291.259 50.2405 336.051 77.0026" stroke="#3366FF" stroke-width="15"/>
<path d="M236.077 95.941C221.841 58.5842 211.011 40.84 171 32.439" stroke="#3366FF" stroke-width="15"/>
<path d="M244.487 93.1195C269.55 37.3124 292.462 21.3373 332 36" stroke="#3366FF" stroke-width="15"/>
</svg>
